<?xml version="1.0" encoding="UTF-8" standalone="no"?><!DOCTYPE svg PUBLIC "-//W3C//DTD SVG 1.1//EN" "http://www.w3.org/Graphics/SVG/1.1/DTD/svg11.dtd"><svg width="100%" height="100%" viewBox="0 0 961 303" version="1.1" xmlns="http://www.w3.org/2000/svg" xmlns:xlink="http://www.w3.org/1999/xlink" xml:space="preserve" xmlns:serif="http://www.serif.com/" style="fill-rule:evenodd;clip-rule:evenodd;stroke-linecap:round;stroke-linejoin:round;stroke-miterlimit:1.5;"><g><g id="Artboard1"><rect x="0" y="0" width="960.004" height="302.922" style="fill:none;"/><g><g><path d="M261.107,82.737l0,101.582c0,28.033 -22.759,50.791 -50.791,50.791l-101.601,-0c-28.032,-0 -50.792,-22.758 -50.792,-50.791l0,-101.582c0,-28.032 22.76,-50.791 50.792,-50.791l101.601,0c28.032,0 50.791,22.759 50.791,50.791Z" style="fill:#3f90f9;"/></g><g><path d="M127.963,270.98l0,-43.918l63.096,0l-63.096,43.918Z" style="fill:#3f90f9;stroke:#3f90f9;stroke-width:13.88px;"/></g><path d="M147.019,146.024l-32.527,0c-6.896,0 -12.495,-5.599 -12.495,-12.496c0,-6.896 5.599,-12.495 12.495,-12.495l32.527,0l0,-32.527c0,-6.897 5.599,-12.496 12.496,-12.496c6.896,-0 12.495,5.599 12.495,12.496l0,32.527l32.527,0c6.897,0 12.496,5.599 12.496,12.495c0,6.897 -5.599,12.496 -12.496,12.496l-32.527,0l0,32.527c0,6.896 -5.599,12.496 -12.495,12.496c-6.897,0 -12.496,-5.6 -12.496,-12.496l0,-32.527Z" style="fill:#fff;"/><g id="Text"><path d="M328.907,180.186c20.725,-0 32.184,-10.606 32.184,-26.21c-0,-30.355 -40.473,-24.26 -40.473,-37.06c-0,-4.023 3.535,-7.193 9.874,-7.193c5.852,0 11.825,1.829 17.921,5.852l10.118,-15.97c-6.827,-4.754 -16.701,-8.412 -28.039,-8.412c-18.652,0 -30.842,10.85 -30.842,25.601c-0,30.355 40.595,24.016 40.595,37.303c-0,4.511 -3.657,7.559 -11.216,7.559c-7.192,-0 -14.385,-2.682 -20.358,-7.315l-10.119,16.214c6.462,4.876 16.824,9.631 30.355,9.631Z" style="fill-rule:nonzero;"/><path d="M400.711,179.576c19.139,0 33.28,-13.41 33.28,-31.33c0,-17.92 -14.141,-31.452 -33.28,-31.452c-19.14,-0 -33.281,13.532 -33.281,31.452c0,17.92 14.141,31.33 33.281,31.33Zm-0,-17.067c-7.924,0 -13.776,-5.852 -13.776,-14.263c0,-8.412 5.852,-14.385 13.776,-14.385c7.802,-0 13.775,5.973 13.775,14.385c0,8.411 -5.973,14.263 -13.775,14.263Z" style="fill-rule:nonzero;"/><path d="M473.733,179.576c11.459,0 20.846,-4.876 26.332,-12.8l-14.385,-10.972c-2.56,4.023 -6.827,6.217 -11.581,6.217c-7.315,0 -13.288,-5.607 -13.288,-13.775c0,-8.168 5.973,-13.898 13.288,-13.898c4.754,0 9.021,2.195 11.581,6.218l14.385,-10.972c-5.486,-7.924 -14.873,-12.8 -26.332,-12.8c-18.895,-0 -32.427,13.653 -32.427,31.33c-0,17.798 13.532,31.452 32.427,31.452Z" style="fill-rule:nonzero;"/><path d="M519.083,109.479c6.095,0 11.337,-4.998 11.337,-11.337c0,-6.339 -5.242,-11.215 -11.337,-11.215c-6.339,-0 -11.582,4.876 -11.582,11.215c0,6.339 5.243,11.337 11.582,11.337Zm9.63,68.878l0,-60.344l-19.505,-0l0,60.344l19.505,-0Z" style="fill-rule:nonzero;"/><path d="M567.602,179.576c8.046,0 13.897,-3.048 18.164,-7.924l-0,6.705l19.505,-0l0,-60.344l-19.505,-0l-0,6.705c-4.267,-4.755 -10.118,-7.924 -18.164,-7.924c-16.458,-0 -28.039,13.532 -28.039,31.33c0,17.798 11.581,31.452 28.039,31.452Zm4.754,-17.067c-7.436,0 -13.288,-6.095 -13.288,-14.385c0,-8.168 5.852,-14.263 13.288,-14.263c7.558,-0 13.41,6.095 13.41,14.263c-0,8.29 -5.852,14.385 -13.41,14.385Z" style="fill-rule:nonzero;"/><path d="M641.112,179.576c4.023,0 8.168,-0.731 11.581,-2.194l-1.95,-15.97c-1.22,0.487 -2.926,0.731 -4.389,0.731c-4.023,0 -7.436,-2.194 -7.436,-8.411l-0,-66.805l-19.506,-0l0,69.243c0,14.141 7.924,23.406 21.7,23.406Z" style="fill-rule:nonzero;"/><path d="M662.811,93.022l0,85.335l20.481,-0l-0,-26.454l12.312,0c16.214,0 29.624,-10.24 29.624,-29.501c-0,-18.896 -13.41,-29.38 -29.624,-29.38l-32.793,-0Zm20.481,41.326l-0,-22.796l9.752,-0c7.315,-0 11.703,4.632 11.703,11.459c0,6.705 -4.388,11.337 -11.703,11.337l-9.752,0Z" style="fill-rule:nonzero;"/><path d="M758.265,179.576c4.023,0 8.167,-0.731 11.581,-2.194l-1.951,-15.97c-1.219,0.487 -2.925,0.731 -4.388,0.731c-4.023,0 -7.437,-2.194 -7.437,-8.411l0,-66.805l-19.505,-0l0,69.243c0,14.141 7.924,23.406 21.7,23.406Z" style="fill-rule:nonzero;"/><path d="M801.908,179.576c7.923,0 13.897,-3.048 18.286,-7.802l-0,6.583l19.505,-0l-0,-60.344l-19.505,-0l-0,29.989c-0,9.021 -4.511,14.873 -12.191,14.873c-7.558,-0 -11.581,-5.486 -11.581,-14.751l-0,-30.111l-19.505,-0l-0,33.281c-0,19.017 10.605,28.282 24.991,28.282Z" style="fill-rule:nonzero;"/><path d="M875.905,179.576c15.97,0 26.21,-7.314 26.21,-18.896c0,-21.09 -31.208,-17.067 -31.208,-24.991c0,-2.316 2.56,-4.023 6.583,-4.023c4.511,0 9.387,1.585 14.751,4.755l8.046,-13.166c-7.437,-4.389 -14.751,-6.461 -24.26,-6.461c-13.166,-0 -24.625,6.705 -24.625,18.774c-0,21.211 31.208,16.213 31.208,24.625c0,2.56 -2.194,4.51 -8.046,4.51c-5.364,0 -11.337,-1.828 -16.823,-5.607l-7.924,13.044c6.827,4.998 15.726,7.436 26.088,7.436Z" style="fill-rule:nonzero;"/></g></g></g></g></svg>